<svg fill="#F04393" xmlns="http://www.w3.org/2000/svg" xmlns:xlink="http://www.w3.org/1999/xlink" version="1.1" x="0px" y="0px" viewBox="0 0 100 100" enable-background="new 0 0 100 100" xml:space="preserve"><g><path d="M76.993,23.173c10.396-7.115,4.784-12.829,3.067-14.758c-0.569,0.289-1.105,0.896-1.565,1.644   c3.448,3.544,1.856,8.325-0.042,11.256c1.846-2.937,2.695-7.216-0.293-10.632c-0.576,1.12-0.993,2.411-1.116,3.432l0.022,0.056   C77.708,15.947,78.459,19.396,76.993,23.173"></path><ellipse cx="77.383" cy="5.594" rx="0.834" ry="0.752"></ellipse></g><path d="M70.591,23.683c-7.239-9.874-5.329-17.367,0.519-17.017l0.031-0.052c-0.244,2.821,3.104,3.818,5.143,6.366  c-1.199-2.063,0.402-3.048,0.256-5.285c-0.053-0.794-0.502-1.218-0.505-2.024c0-0.738,0.598-1.335,1.334-1.335  c0.737,0,1.333,0.597,1.334,1.335c0.001,1.345,1.022,2.15,1.085,2.216c-1.023-2.111,0.656-5.493-5.78-6.716  c-2.961-0.489-9.456,0.816-10.591,9.704c-0.994,7.784,7.609,16.824,8.686,22.952c1.223,6.956-2.688,9.522-2.688,3.892  c3.507-7.949-4.104-14.26-14.684-14.243C35.993,23.504,20.034,47.162,16.473,52.33c1.187-0.357,2.649-1.296,3.091-1.766  c2.461,1.766,10.08-6.912,10.08-6.912c-1.987,7.72,8.612-2.714,15.957,3.978v0.001c-1.696,0.56-3.292,0.808-4.575,0.395  c0.941,1.17,3.329,1.514,6.22,1.337c0.254,0.7,0.644,1.26,1.112,1.596l0.566,47.779h0.894l0.567-47.778  c0.593-0.425,1.058-1.211,1.284-2.183c5.183-1,11.901-4.686,11.901-4.686c8.049,3.879,16.955,3.892,18.404-0.662  C83.557,38.466,78.634,34.655,70.591,23.683z"></path></svg>