<svg fill="#F04393" xmlns="http://www.w3.org/2000/svg" xmlns:xlink="http://www.w3.org/1999/xlink" version="1.1" x="0px" y="0px" viewBox="0 0 32 32" enable-background="new 0 0 32 32" xml:space="preserve"><g display="none"><rect x="-73.667" y="-68" display="inline" fill="#F04393" width="542" height="232"></rect></g><g display="none"><g display="inline"><g><path fill="#F04393" d="M14.061,4.478c0.191,0,0.303,0.024,0.303,0.024c2.598,0.804-1.173,6.433-1.173,6.433     s1.341,0.045,5.28,0.268c3.939,0.223,6.831,3.083,6.831,3.083s-1.504,1.428-5.049,1.428c-0.484,0-1.006-0.027-1.568-0.087     c0.323,0.384,0.666,0.873,0.75,1.295c0.168,0.849,0.377,5.987,0.461,6.836c0.084,0.849,0.419,1.653-0.21,1.653     c-0.629,0-3.269,0-3.269,0s1.378-0.723,2.805-0.723c0,0,0.212-2.762-0.207-5.175c-0.292-1.683-0.956-3.157-1.797-4.1     c-0.185-0.034-0.365-0.07-0.539-0.108c0.222,0.577,0.517,1.501,0.408,2.108c-0.168,0.938-0.88,3.619-1.676,5.004     c-0.796,1.385-1.048,1.832-1.048,2.323c0,0.491,0,0.76-0.587,0.76c-0.587,0-3.153,0-3.153,0s0.555-0.625,1.728-0.625     s1.571-0.406,1.571-0.406s0.484-1.129,1.3-3.176c0.766-1.921,1.736-3.967,0.329-6.279c-2.765-0.837-3.637-2.118-4.164-2.961     c-0.671-1.072,1.467-2.77,2.598-4.066c0.78-0.893,0.167-1.585-0.907-1.585c-0.484,0-1.063,0.141-1.649,0.468     c-1.343,0.75-3.059,2.502-3.059,2.502c-0.284-2.598,2.532-3.054,3.706-4.081C12.878,4.589,13.651,4.478,14.061,4.478      M14.061,3.478L14.061,3.478c-0.535,0-1.589,0.138-2.643,1.06c-0.238,0.208-0.638,0.422-1.061,0.648     C9.06,5.88,7.099,6.928,7.378,9.48l0.229,2.1l1.479-1.509c0.016-0.017,1.633-1.659,2.832-2.329     c0.532-0.297,0.957-0.342,1.162-0.342c0.031,0,0.06,0.001,0.087,0.003c-0.216,0.241-0.471,0.503-0.741,0.779     c-1.26,1.29-2.827,2.895-1.886,4.4c0.47,0.751,1.426,2.281,4.331,3.263c0.817,1.622,0.231,3.073-0.441,4.738l-0.136,0.338     c-0.562,1.408-0.968,2.386-1.162,2.849c-0.14,0.047-0.389,0.104-0.78,0.104c-1.577,0-2.389,0.863-2.476,0.962L8.401,26.5h2.224     h3.153c0.236,0,0.447-0.03,0.631-0.089h2.01h3.269c0.426,0,0.8-0.164,1.051-0.463c0.444-0.526,0.33-1.187,0.23-1.769     c-0.028-0.165-0.059-0.341-0.077-0.519c-0.028-0.282-0.076-1.177-0.127-2.124c-0.133-2.455-0.235-4.237-0.348-4.807     c-0.001-0.005-0.002-0.01-0.003-0.015c3.722-0.042,5.397-1.53,5.578-1.702l0.748-0.711l-0.734-0.726     c-0.129-0.128-3.21-3.128-7.477-3.37c-1.611-0.091-2.787-0.153-3.615-0.194c0.799-1.473,1.722-3.639,1.211-5.084     c-0.241-0.681-0.747-1.159-1.463-1.381l-0.042-0.013l-0.043-0.009C14.509,3.51,14.329,3.478,14.061,3.478L14.061,3.478     L14.061,3.478z M15.363,24.835c0.001-0.031,0.001-0.062,0.001-0.094c0-0.224,0.297-0.75,0.915-1.825     c0.658-1.144,1.216-2.952,1.535-4.191c0.087,0.31,0.16,0.631,0.217,0.96c0.256,1.476,0.262,3.119,0.234,4.085     c-1.251,0.205-2.259,0.728-2.312,0.755L15.363,24.835L15.363,24.835z"></path></g></g><g display="inline"><path fill="#F04393" d="M16,1c8.271,0,15,6.729,15,15s-6.729,15-15,15S1,24.271,1,16S7.729,1,16,1 M16,0C7.163,0,0,7.163,0,16    s7.163,16,16,16s16-7.163,16-16S24.837,0,16,0L16,0z"></path></g></g><g><g><path d="M9.251,10.607l0.37-0.377c0.015-0.015,1.496-1.521,2.63-2.154c0.439-0.245,0.91-0.38,1.327-0.38    c0.409,0,0.734,0.133,0.827,0.338c0.101,0.223-0.094,0.497-0.219,0.64c-0.214,0.245-0.47,0.507-0.732,0.776    c-1.051,1.076-2.138,2.189-1.573,3.092c0.415,0.664,1.183,1.892,3.704,2.679c1.032,1.774,0.387,3.372-0.237,4.917l-0.118,0.295    c-0.614,1.538-1.017,2.495-1.116,2.728c-0.094,0.065-0.436,0.261-1.174,0.261c-1.13,0-1.682,0.608-1.705,0.633l-0.369,0.416h0.556    h2.77c0.765,0,0.765-0.509,0.765-0.917c0-0.357,0.198-0.718,0.887-1.916c0.726-1.262,1.36-3.68,1.502-4.476    c0.076-0.428-0.041-0.993-0.2-1.496c0.664,0.811,1.171,2.015,1.401,3.339c0.295,1.696,0.227,3.615,0.193,4.259    c-1.209,0.068-2.296,0.631-2.345,0.657l-0.899,0.471h1.015h2.871c0.192,0,0.341-0.062,0.443-0.183    c0.201-0.239,0.138-0.612,0.064-1.043c-0.027-0.159-0.057-0.329-0.074-0.501c-0.026-0.262-0.067-1.018-0.114-1.894    c-0.088-1.621-0.197-3.638-0.294-4.134c-0.046-0.233-0.168-0.498-0.364-0.791c0.285,0.019,0.565,0.029,0.838,0.029    c3.177,0,4.55-1.269,4.607-1.323l0.187-0.178l-0.183-0.181c-0.106-0.105-2.647-2.58-6.161-2.78    c-2.297-0.13-3.597-0.192-4.207-0.218c0.588-0.953,2.018-3.482,1.539-4.836c-0.145-0.41-0.441-0.686-0.879-0.822    c-0.034-0.008-0.152-0.032-0.34-0.032c-0.381,0-1.136,0.101-1.907,0.776c-0.263,0.23-0.645,0.435-1.05,0.651    c-1.108,0.592-2.488,1.33-2.289,3.149L9.251,10.607z"></path><path d="M16,32c8.837,0,16-7.163,16-16S24.837,0,16,0S0,7.163,0,16S7.163,32,16,32z M16,2c7.72,0,14,6.28,14,14    c0,7.72-6.28,14-14,14S2,23.72,2,16C2,8.28,8.28,2,16,2z"></path></g></g><g display="none"><g display="inline"><g><path fill="#F04393" d="M18.031,19.684c-0.057-0.329-0.13-0.65-0.217-0.96c-0.319,1.239-0.877,3.047-1.535,4.191     c-0.618,1.074-0.915,1.601-0.915,1.825c0,0.032,0,0.063-0.001,0.094l0.59-0.31c0.052-0.027,1.06-0.55,2.312-0.755     C18.292,22.803,18.287,21.16,18.031,19.684z"></path></g><g><path fill="#F04393" d="M16,0C7.163,0,0,7.163,0,16s7.163,16,16,16s16-7.163,16-16S24.837,0,16,0z M25.99,15.011     c-0.181,0.172-1.856,1.66-5.578,1.702c0.001,0.005,0.002,0.01,0.003,0.015c0.113,0.57,0.215,2.352,0.348,4.807     c0.051,0.948,0.1,1.842,0.127,2.124c0.018,0.178,0.049,0.354,0.077,0.519c0.1,0.583,0.213,1.243-0.23,1.769     c-0.252,0.298-0.625,0.463-1.051,0.463h-3.269h-2.01c-0.184,0.06-0.394,0.089-0.631,0.089h-3.153H8.401l1.476-1.664     c0.087-0.098,0.899-0.962,2.476-0.962c0.391,0,0.64-0.056,0.78-0.104c0.194-0.463,0.6-1.441,1.162-2.849l0.136-0.338     c0.672-1.665,1.258-3.117,0.441-4.738c-2.904-0.981-3.861-2.511-4.331-3.263c-0.941-1.505,0.626-3.11,1.886-4.4     c0.269-0.276,0.525-0.538,0.741-0.779c-0.027-0.002-0.056-0.003-0.087-0.003c-0.205,0-0.629,0.044-1.162,0.342     c-1.2,0.67-2.816,2.312-2.832,2.329L7.607,11.58l-0.229-2.1c-0.279-2.552,1.682-3.6,2.98-4.294     c0.423-0.226,0.823-0.44,1.061-0.648c1.053-0.923,2.108-1.06,2.643-1.06h0c0.268,0,0.448,0.032,0.513,0.046l0.043,0.009     l0.042,0.013c0.716,0.222,1.222,0.699,1.463,1.381c0.512,1.445-0.411,3.612-1.211,5.084c0.828,0.041,2.004,0.102,3.615,0.194     c4.268,0.242,7.348,3.242,7.477,3.37l0.734,0.726L25.99,15.011z"></path></g><g><path fill="#F04393" d="M13.191,10.935c0,0,3.772-5.629,1.173-6.433c0,0-0.112-0.024-0.303-0.024     c-0.41,0-1.183,0.111-1.984,0.812c-1.173,1.028-3.989,1.484-3.706,4.081c0,0,1.716-1.752,3.059-2.502     c0.586-0.327,1.165-0.469,1.649-0.469c1.074,0,1.687,0.693,0.907,1.585c-1.131,1.296-3.269,2.993-2.598,4.066     c0.527,0.842,1.399,2.124,4.164,2.961c1.407,2.312,0.438,4.358-0.328,6.279c-0.817,2.047-1.3,3.176-1.3,3.176     s-0.398,0.406-1.571,0.406c-1.173,0-1.728,0.625-1.728,0.625s2.566,0,3.153,0s0.587-0.268,0.587-0.76     c0-0.491,0.251-0.938,1.048-2.323c0.796-1.385,1.509-4.066,1.676-5.004c0.109-0.607-0.186-1.531-0.408-2.108     c0.173,0.038,0.353,0.073,0.539,0.108c0.841,0.943,1.505,2.417,1.797,4.1c0.419,2.413,0.207,5.175,0.207,5.175     c-1.427,0-2.805,0.723-2.805,0.723s2.64,0,3.269,0s0.293-0.804,0.21-1.653s-0.293-5.987-0.461-6.836     c-0.083-0.422-0.426-0.911-0.75-1.295c0.561,0.061,1.084,0.087,1.568,0.087c3.545,0,5.049-1.428,5.049-1.428     s-2.892-2.859-6.831-3.083S13.191,10.935,13.191,10.935z"></path></g></g></g><g display="none"><g display="inline"><g><path fill="#F04393" d="M14.061,4.478c0.191,0,0.303,0.024,0.303,0.024c2.598,0.804-1.173,6.433-1.173,6.433     s1.341,0.045,5.28,0.268c3.939,0.223,6.831,3.083,6.831,3.083s-1.504,1.428-5.049,1.428c-0.484,0-1.006-0.027-1.568-0.087     c0.323,0.384,0.666,0.873,0.75,1.295c0.168,0.849,0.377,5.987,0.461,6.836c0.084,0.849,0.419,1.653-0.21,1.653     c-0.629,0-3.269,0-3.269,0s1.378-0.723,2.805-0.723c0,0,0.212-2.762-0.207-5.175c-0.292-1.683-0.956-3.157-1.797-4.1     c-0.185-0.034-0.365-0.07-0.539-0.108c0.222,0.577,0.517,1.501,0.408,2.108c-0.168,0.938-0.88,3.619-1.676,5.004     c-0.796,1.385-1.048,1.832-1.048,2.323c0,0.491,0,0.76-0.587,0.76c-0.587,0-3.153,0-3.153,0s0.555-0.625,1.728-0.625     s1.571-0.406,1.571-0.406s0.484-1.129,1.3-3.176c0.766-1.921,1.736-3.967,0.329-6.279c-2.765-0.837-3.637-2.118-4.164-2.961     c-0.671-1.072,1.467-2.77,2.598-4.066c0.78-0.893,0.167-1.585-0.907-1.585c-0.484,0-1.063,0.141-1.649,0.468     c-1.343,0.75-3.059,2.502-3.059,2.502c-0.284-2.598,2.532-3.054,3.706-4.081C12.878,4.589,13.651,4.478,14.061,4.478      M14.061,3.978L14.061,3.978c-0.465,0-1.383,0.122-2.313,0.936c-0.281,0.246-0.705,0.473-1.155,0.713     C9.344,6.295,7.633,7.21,7.875,9.426l0.115,1.05l0.74-0.755c0.017-0.017,1.682-1.71,2.946-2.415     c0.468-0.261,0.967-0.405,1.406-0.405c0.461,0,0.698,0.155,0.746,0.259c0.046,0.102-0.036,0.293-0.215,0.498     c-0.238,0.272-0.523,0.565-0.826,0.874c-1.196,1.225-2.552,2.614-1.82,3.785c0.483,0.772,1.373,2.195,4.254,3.115     c1.064,1.898,0.389,3.57-0.324,5.338l-0.135,0.336c-0.654,1.64-1.098,2.699-1.244,3.043c-0.122,0.068-0.474,0.225-1.163,0.225     c-1.382,0-2.074,0.761-2.102,0.794L9.512,26h1.112h3.153c1.087,0,1.087-0.819,1.087-1.26c0-0.351,0.236-0.777,0.981-2.074     c0.823-1.431,1.547-4.113,1.735-5.165c0.035-0.194,0.04-0.415,0.017-0.664c0.426,0.788,0.749,1.742,0.926,2.761     c0.306,1.764,0.264,3.749,0.226,4.612c-1.344,0.125-2.509,0.729-2.564,0.757l-1.798,0.943h2.03h3.269     c0.354,0,0.559-0.155,0.669-0.285c0.294-0.349,0.209-0.841,0.12-1.363c-0.03-0.176-0.063-0.364-0.082-0.555     c-0.029-0.293-0.075-1.152-0.129-2.147c-0.127-2.355-0.233-4.2-0.339-4.737c-0.038-0.193-0.116-0.401-0.233-0.622     c0.19,0.008,0.377,0.011,0.561,0.011c3.702,0,5.326-1.501,5.393-1.565l0.374-0.355l-0.367-0.363     c-0.124-0.122-3.073-2.995-7.154-3.226c-2.225-0.126-3.629-0.196-4.427-0.232c0.769-1.289,2.113-3.871,1.58-5.378     c-0.186-0.527-0.581-0.897-1.14-1.07C14.442,4.007,14.293,3.978,14.061,3.978L14.061,3.978L14.061,3.978z"></path></g></g><g display="inline"><path fill="#F04393" d="M16,0.5c8.547,0,15.5,6.953,15.5,15.5S24.547,31.5,16,31.5S0.5,24.547,0.5,16S7.453,0.5,16,0.5 M16,0    C7.163,0,0,7.163,0,16s7.163,16,16,16s16-7.163,16-16S24.837,0,16,0L16,0z"></path></g></g><g display="none"><path display="inline" d="M29.522,14.955c0,0-4.619-4.357-10.911-4.697s-8.435-0.408-8.435-0.408s6.025-8.578,1.874-9.803   c0,0-1.54-0.136-3.414,1.43S2.746,2.701,2.478,7.467c0,0,1.607-2.791,4.887-3.812c3.28-1.021,5.891-0.272,4.083,1.702   s-5.221,4.561-4.15,6.195c0.842,1.284,2.234,3.237,6.651,4.512c2.247,3.523,0.699,6.641-0.525,9.568   c-1.304,3.119-2.077,4.84-2.077,4.84s-0.635,0.618-2.509,0.618c-1.874,0-2.761,0.953-2.761,0.953s4.1,0,5.037,0   c0.937,0,0.937-0.409,0.937-1.157c0-0.749,0.402-1.43,1.674-3.54c1.272-2.11,2.41-6.195,2.678-7.625   c0.173-0.926-0.298-2.333-0.652-3.213c0.277,0.057,0.565,0.112,0.86,0.164c1.344,1.437,2.404,3.684,2.871,6.248   c0.669,3.676,0.331,7.885,0.331,7.885c-2.28,0-4.481,1.101-4.481,1.101s4.217,0,5.221,0c1.004,0,0.469-1.225,0.335-2.519   c-0.134-1.294-0.469-9.123-0.736-10.416c-0.133-0.644-0.681-1.388-1.197-1.974C26.419,17.766,29.522,14.955,29.522,14.955z"></path></g></svg>