<svg fill="#F04393" xmlns="http://www.w3.org/2000/svg" xmlns:xlink="http://www.w3.org/1999/xlink" version="1.1" x="0px" y="0px" viewBox="0 0 900.002 900" enable-background="new 0 0 900.002 900" xml:space="preserve"><g><g><g><path d="M358.008,317.508c-8.952,0-16.219,7.27-16.219,16.221c0,8.943,7.267,16.201,16.219,16.201     c8.947,0,16.204-7.258,16.204-16.201C374.212,324.777,366.956,317.508,358.008,317.508z"></path></g><g><path d="M719.094,409.059c-10.306-68.432-44.294-132.502-93.253-175.807c-39.477-34.935-107.628-73.452-208.179-58.481     c-51.49,7.658-95.971,41.919-128.647,99.083c-21.749,38.037-31.381,73.762-33.438,82.067     c-7.575,9.99-51.041,67.746-61.762,92.315c-1.263,2.885-2.585,5.692-3.922,8.513c-10.989,23.288-22.362,47.394-4.119,111.841     c19.634,69.387,61.567,140.059,95.446,160.862c4.244,2.614,8.113,3.906,11.599,3.906c2.661,0,5.098-0.749,7.285-2.265     c10.513-7.293,6.858-26.096,0.797-57.237c-3.986-20.482-8.503-43.694-6.882-58.586c0.761-7.026,1.259-13.765,1.733-20.288     c2.082-28.736,3.893-53.552,28.445-82.21c8.085-9.688,18.862-20.571,25.559-25.36l6.565,1.113     c1.128,0.197,27.942,4.568,63.547-4.438c31.905-8.046,77.094-28.813,113.333-81.782c7.162,1.087,21.538,4.683,31.214,16.523     c9.919,12.12,12.843,30.131,8.714,53.526c-3.229,18.333-25.578,54.521-53.876,100.349     c-43.259,70.061-228.061,432.882-259.896,531.27c-3.268,10.127,15.228-19.629,26.711,1.395     c16.25,29.785,70.732,7.271,112.176,9.42c30.295,1.578,47.192,22.63,64.859,3.223c12.563-13.781,111.003-266.536,113.104-273.444     c6.107-20.083,14.362-40.446,25.004-61.717c14.452-28.941,27.811-54.923,39.585-77.837     C708.012,574.229,735.829,520.096,719.094,409.059z M359.057,363.877c-2.761,0-11.581-0.75-15.512,3.755     c-7.797,8.978-19.02,22.29-19.02,22.29s-15.145,18.631-5.83,32.633c8.054,12.057,15.198,28.955,8.003,62.595     c-6.8,6.663-12.692,13.506-15.384,16.743c-8.112,9.457-14.005,18.578-18.407,27.505c-12.686-24.931-31.859-39.863-50.193-48.804     c6.592-13.946,17.462-32.216,34.986-50.833c3.19-3.39,3.029-8.734-0.362-11.917c-3.389-3.197-8.735-3.041-11.923,0.348     c-19.259,20.499-31.163,40.602-38.349,56.014c-9.245-3.107-17.602-4.827-24.015-5.773c0.687-1.5,1.387-2.988,2.098-4.487     c1.397-2.965,2.794-5.929,4.127-8.968c10.142-23.25,55.31-83.027,60.3-89.611c4.27,3.092,10.578,6.262,18.624,6.352     c6.878,0.09,15.009-2.094,24.156-8.551c5.854-4.138,14.213-11.967,16.187-16.213c1.585-3.402,0.376-9.25,0.376-13.225     c0-16.648,13.494-30.154,30.14-30.154c16.65,0,30.152,13.506,30.152,30.154C389.209,350.37,375.708,363.877,359.057,363.877z"></path></g></g></g></svg>